<svg width="24" height="24" viewBox="0 0 24 24" fill="none" xmlns="http://www.w3.org/2000/svg">
<path d="M16.8 10.2C16.7997 8.69884 16.2877 7.24262 15.3485 6.0716C14.4092 4.90059 13.0988 4.08474 11.6335 3.75869C10.1682 3.43264 8.63551 3.61585 7.28833 4.27811C5.94115 4.94036 4.85998 6.04208 4.2232 7.40149C3.58643 8.76091 3.43211 10.2968 3.78569 11.7557C4.13928 13.2146 4.97965 14.5094 6.16814 15.4265C7.35663 16.3435 8.82224 16.828 10.3231 16.8C11.824 16.772 13.2705 16.2331 14.424 15.2724L19.3752 20.2248L19.4592 20.2932C19.5824 20.3788 19.7332 20.4151 19.8818 20.395C20.0305 20.3749 20.1662 20.2999 20.2623 20.1847C20.3583 20.0695 20.4078 19.9225 20.4008 19.7727C20.3939 19.6228 20.3311 19.481 20.2248 19.3752L15.2724 14.424C16.2618 13.239 16.8026 11.7437 16.8 10.2Z" fill="white"/>
</svg>
