<svg width="300" height="204" viewBox="0 0 300 204" fill="none" xmlns="http://www.w3.org/2000/svg">
<g clip-path="url(#clip0_3_953)">
<path d="M149.205 174.724C149.205 166.687 155.667 160.237 163.719 160.237C171.771 160.237 178.23 166.687 178.23 174.724C178.23 182.761 171.771 189.211 163.719 189.211C155.667 189.211 149.205 182.761 149.205 174.724ZM208.251 174.724C208.251 166.687 214.713 160.237 222.765 160.237C230.814 160.237 237.276 166.687 237.276 174.724C237.276 182.761 230.814 189.211 222.765 189.211C214.713 189.211 208.251 182.761 208.251 174.724ZM71.373 174.724C71.373 166.687 77.832 160.237 85.887 160.237C93.936 160.237 100.398 166.687 100.398 174.724C100.398 182.761 93.936 189.211 85.887 189.211C77.832 189.211 71.373 182.761 71.373 174.724ZM12.327 174.724C12.327 166.687 18.786 160.237 26.838 160.237C34.893 160.237 41.352 166.687 41.352 174.724C41.352 182.761 34.893 189.211 26.838 189.211C18.786 189.211 12.327 182.761 12.327 174.724ZM131.709 149.125H119.085V199.826H131.709V149.125ZM41.253 199.826H53.877V149.125H41.253V153.194C36.978 150.218 31.809 148.532 26.244 148.532C11.73 148.532 0 160.237 0 174.724C0 189.31 11.73 200.916 26.244 200.916C31.809 200.916 36.978 199.23 41.253 196.254V199.826ZM237.177 199.826H249.801V149.125H237.177V153.194C232.902 150.218 227.733 148.532 222.168 148.532C207.654 148.532 195.927 160.237 195.927 174.724C195.927 189.31 207.654 200.916 222.168 200.916C227.733 200.916 232.902 199.23 237.177 196.254V199.826ZM254.475 183.354C254.871 193.574 263.619 200.817 278.232 200.817C290.16 200.817 300 195.658 300 184.249C300 176.311 295.527 171.649 285.189 169.663L277.137 168.076C271.968 167.085 268.389 166.091 268.389 163.016C268.389 159.644 271.869 158.156 276.243 158.156C282.606 158.156 285.189 161.33 285.387 165.1H298.113C297.417 155.176 289.464 148.532 276.642 148.532C263.421 148.532 255.567 155.772 255.567 165.199C255.567 176.709 264.912 178.593 272.964 180.081L279.624 181.273C284.394 182.165 286.482 183.554 286.482 186.333C286.482 188.813 284.097 191.292 278.43 191.292C270.18 191.292 267.495 187.028 267.396 183.354H254.475ZM100.299 131.862V153.194C96.024 150.218 90.855 148.532 85.29 148.532C70.776 148.532 59.046 160.237 59.046 174.724C59.046 189.31 70.776 200.916 85.29 200.916C90.855 200.916 96.024 199.23 100.299 196.254V199.826H112.923V131.862H100.299ZM178.131 131.862V153.194C173.856 150.218 168.687 148.532 163.122 148.532C148.608 148.532 136.881 160.237 136.881 174.724C136.881 189.31 148.608 200.916 163.122 200.916C168.687 200.916 173.856 199.23 178.131 196.254V199.826H190.755V131.862H178.131ZM32.802 116.881L41.352 131.862H100.299L76.938 91.578L32.802 116.881ZM131.709 144.462V131.862H178.131L128.628 46.3355L84.393 71.6353L119.085 131.862V144.462H131.709ZM196.92 131.862H255.966L179.622 0L135.489 25.3986L196.92 131.862Z" fill="#909090"/>
</g>
<defs>
<clipPath id="clip0_3_953">
<rect width="300" height="203.62" fill="white"/>
</clipPath>
</defs>
</svg>
