<svg width="300" height="106" viewBox="0 0 300 106" fill="none" xmlns="http://www.w3.org/2000/svg">
<path d="M35.0628 72.3736C29.7276 72.3736 27.1632 68.2719 28.5024 63.5271C31.2672 53.6931 49.0332 39.1203 61.14 39.1203C69.9684 39.1203 69.2964 47.0199 64.1208 53.7579L61.26 56.9247C50.9988 66.9939 41.4864 72.3736 35.0628 72.3736ZM78.3348 6.05914C62.8836 6.06514 45.8688 15.5175 35.1828 24.4695L36.0264 25.6923C52.6128 14.0655 75.6276 6.50554 81.972 17.8455C85.3224 23.8275 79.6356 35.9091 71.6268 45.4575C73.542 41.2407 72.2772 33.1443 61.11 33.1443C42.546 33.1443 6 57.736 6 82.9035C6 92.9847 12.9936 99.5619 24.5136 99.5619C55.3488 99.5619 97.1664 49.0179 97.1664 23.6319C97.1664 14.6643 92.0076 6.05914 78.3348 6.05914Z" fill="#909090"/>
<path d="M118.033 72.3736C116.238 72.3736 114.744 71.7472 113.809 70.6036C112.835 69.4048 112.544 67.7056 113.006 65.9512C114.032 62.1448 118.135 59.1544 122.354 59.1544H132.278L128.732 72.3736H118.033ZM146.555 32.7448C143.717 29.2552 139.122 27.694 135.834 27.694H117.8L114.739 39.1108H131.747L133.376 39.2824C133.393 39.2824 134.938 39.4624 135.799 40.6216C136.495 41.5912 136.597 43.0312 136.097 44.92L135.293 47.9248H124.577C115.354 47.9248 102.496 54.5416 99.6288 65.2288C98.2032 70.558 99.4523 75.1744 102.222 78.5668C104.97 81.934 110.156 83.7928 115.759 83.7928H125.683H125.677H138.29L144.206 61.6996L148.561 45.46C150.271 39.0748 148.418 35.0188 146.555 32.7448Z" fill="#909090"/>
<path d="M270.433 27.694C265.554 27.694 261.021 29.1376 257.334 31.87C253.612 34.6264 251.559 37.9384 250.335 42.5068C247.679 52.408 255.46 57.1864 261.712 60.574C266.196 63.0028 270.075 65.098 269.235 68.2012C268.642 70.4284 267.669 72.3772 262.152 72.3772H245.313L242.257 83.7928H260.897C265.895 83.7928 270.508 82.7524 274.224 79.8988C277.944 77.0356 280.047 73.0468 281.346 68.1784C282.594 63.5452 281.753 59.1196 278.771 55.8172C276.286 53.044 272.711 51.118 269.561 49.4164C265.524 47.2444 261.718 45.1948 262.383 42.7108C262.789 41.2072 264.281 39.1108 267.541 39.1108H283.923L286.985 27.694H270.433Z" fill="#909090"/>
<path d="M172.705 27.694C167.827 27.694 163.295 29.1376 159.607 31.87C155.885 34.6264 153.832 37.9384 152.596 42.5068C149.946 52.408 157.733 57.1864 163.984 60.574C168.47 63.0028 172.339 65.098 171.508 68.2012C170.909 70.4284 169.94 72.3772 164.424 72.3772H147.587L144.526 83.7928H163.164C168.168 83.7928 172.78 82.7524 176.496 79.8988C180.222 77.0356 182.32 73.0468 183.619 68.1784C184.862 63.5452 184.02 59.1196 181.05 55.8172C178.565 53.044 174.984 51.118 171.828 49.4164C167.797 47.2444 163.996 45.1948 164.662 42.7108C165.061 41.2072 166.559 39.1108 169.813 39.1108H186.185L189.252 27.694H172.705Z" fill="#909090"/>
<path d="M198.138 27.694L183.518 83.7928H195.87L210.477 27.694H198.138Z" fill="#909090"/>
<path d="M243.337 27.694C221.592 27.772 210.212 42.2536 206.6 55.744C202.321 71.74 210.836 83.794 226.409 83.794H236.844L239.899 72.3784H229.468C223.639 72.3784 215.624 67.792 218.855 55.744C221.42 46.168 230.758 39.112 241 39.112H247.626L250.687 27.6952H243.337V27.694Z" fill="#909090"/>
</svg>
