<svg width="300" height="39" viewBox="0 0 300 39" fill="none" xmlns="http://www.w3.org/2000/svg">
<path d="M26.7173 2.02026C26.7321 1.96098 26.7582 1.83145 27.3508 1.84598C33.1269 2.0905 47.3243 3.09085 62.9112 7.1552C83.2033 12.4681 91.0615 17.0845 84.5778 18.4443C78.1497 19.778 53.1856 19.126 26.4839 36.1318C24.6165 37.3026 21.823 38.8364 14.8614 36.7246C12.216 35.928 8.97415 34.798 5.15062 32.8158C-11.2439 24.2907 34.5755 18.4739 42.6783 17.3587C51.9704 16.0879 61.3328 15.3061 52.9411 10.7157C50.9144 9.61531 45.6163 6.72172 27.3508 2.40913C27.3508 2.40913 26.658 2.26479 26.7173 2.02011V2.02026Z" fill="#909090"/>
<path d="M107.445 16.3918H113.784C117.878 16.3918 120.598 15.9287 120.99 12.5276C121.09 11.6717 120.931 11.0196 120.483 10.5158C119.631 9.55988 117.734 9.47096 113.984 9.47096H109.587L107.445 16.3918ZM109.527 30.0224C112.754 30.0224 116.678 30.2966 117.011 25.9988C117.097 24.9577 116.837 24.1056 116.259 23.4683C115.448 22.5977 113.955 22.3087 111.932 22.3087H105.593L103.203 30.0224H109.527ZM117.819 3.01689C122.769 3.01689 126.403 4.13209 128.312 6.22911C129.456 7.50362 129.949 9.12639 129.76 11.0493C129.386 15.0432 127.489 17.244 122.784 19.1409L122.235 19.3558L122.743 19.6596C124.755 20.8341 125.866 23.1201 125.622 25.595C124.581 36.4506 115.503 36.4506 105.896 36.4506H98.1382C96.4451 36.4357 94.5036 36.5653 93.8553 35.8985C92.8994 34.9167 93.4774 33.3088 93.4774 33.3088L102.088 5.49182C102.595 3.90238 103.492 3.01689 106.967 3.01689H117.819ZM183.527 9.68955C178.532 9.77491 175.539 12.5127 173.816 18.5333L172.297 24.0315C172.078 24.8874 171.993 25.6395 172.034 26.3175C172.297 28.5627 174.016 29.7038 177.143 29.7779C182.152 29.689 185.131 26.9547 186.854 20.9341L188.388 15.436C188.591 14.5801 188.677 13.8132 188.651 13.15C188.388 10.9048 186.665 9.74883 183.527 9.68955ZM174.683 36.9137C170.226 36.9137 166.332 35.2761 164.265 32.5566C162.671 30.4448 162.268 27.7513 163.09 24.7836L164.813 18.6926C168.199 6.78115 173.612 2.55377 185.494 2.55377H185.987C190.459 2.55377 194.353 4.19137 196.42 6.91082C198.013 9.02266 198.417 11.7162 197.595 14.6839L195.872 20.7748C192.485 32.6863 188.851 36.9137 175.176 36.9137H174.683ZM291.579 9.54506L284.384 9.53024C281.723 9.53024 279.204 9.96372 278.9 13.0907C278.77 14.38 279.767 15.0284 281.764 15.8398L287.685 17.9665C291.041 19.1558 292.809 21.89 292.405 25.2764C291.304 34.5536 284.558 36.4506 274.762 36.4506H263.691C263.228 36.4506 262.865 36.043 262.924 35.5651C263.588 29.7927 269.593 29.9372 269.593 29.9372H276.874C280.797 29.9372 282.924 28.433 283.213 25.4505C283.357 24.0019 282.475 22.9163 280.364 21.9604L274.488 19.8486C271.261 18.5333 269.564 16.1733 269.867 13.3649C270.823 4.72489 277.018 2.98725 286.714 2.98725H297.655C298.107 2.98725 298.436 3.3948 298.351 3.8431C298.003 5.62149 296.673 9.54506 291.579 9.54506ZM237.727 36.4506C238.205 36.4506 238.723 36.0727 238.853 35.6244L242.995 22.2679C243.429 22.2798 243.833 22.5273 244.036 22.9163L249.912 34.335C250.565 35.6244 251.895 36.4357 253.328 36.4357H259.449C259.853 36.4357 260.131 36.0023 259.942 35.6392L252.517 21.1379C252.328 20.7896 252.417 20.3562 252.706 20.0968L270.519 3.68379C270.783 3.4357 270.608 3.00207 270.245 3.00207H263.039C261.839 3.00207 260.664 3.48002 259.812 4.33586L245.715 17.5182C245.337 17.8812 244.833 18.0702 244.31 18.0702L248.723 3.769C248.842 3.37998 248.553 3.00207 248.145 3.00207H241.083C240.605 3.00207 240.142 3.3207 240.013 3.769L230.113 35.7096C230.013 36.0875 230.272 36.4506 230.661 36.4506H237.727H237.727ZM218.724 9.68955C213.73 9.77491 210.747 12.5127 209.028 18.5333L207.494 24.0315C207.29 24.8874 207.202 25.6395 207.231 26.3175C207.494 28.5627 209.213 29.7038 212.34 29.7779C217.349 29.689 220.343 26.9547 222.066 20.9341L223.585 15.436C223.789 14.5801 223.874 13.8132 223.848 13.15C223.585 10.9048 221.862 9.74883 218.739 9.68955H218.724ZM209.895 36.9137C205.423 36.9137 201.529 35.2761 199.462 32.5566C197.869 30.4448 197.465 27.7513 198.287 24.7836L200.01 18.6926C203.397 6.78115 208.809 2.55377 220.706 2.55377H221.199C225.656 2.55377 229.55 4.19137 231.617 6.91082C233.21 9.02266 233.614 11.7162 232.792 14.6839L231.069 20.7748C227.683 32.6863 224.048 36.9137 210.388 36.9137H209.895ZM143.35 9.4302L140.486 18.6482L145.94 18.663C150.138 18.663 153.757 18.663 154.276 13.2352C154.38 12.2238 154.161 11.442 153.628 10.8455C152.742 9.86368 150.993 9.4302 147.922 9.4302H143.35ZM135.84 5.477C136.344 3.88756 137.244 3.00207 140.716 3.00207H150.023C155.825 3.00207 159.619 4.05799 161.616 6.25875C162.916 7.70739 163.424 9.60434 163.194 12.0644C162.612 18.0109 159.544 21.4269 152.901 23.4832L152.612 23.583L157.214 35.6539C157.358 36.0281 157.069 36.4504 156.666 36.4504H150.949C149.371 36.4504 148.026 35.5242 147.592 34.1496L144.132 25.0576H138.489L135.218 35.6242C135.088 36.0577 134.566 36.4504 134.088 36.4504H127.011C126.633 36.4504 126.359 36.0725 126.474 35.7094L135.84 5.47685V5.477Z" fill="#909090"/>
</svg>
