<svg width="300" height="101" viewBox="0 0 300 101" fill="none" xmlns="http://www.w3.org/2000/svg">
<g clip-path="url(#clip0_3_951)">
<path fill-rule="evenodd" clip-rule="evenodd" d="M110.18 0.809937C102.497 0.809937 96.2666 7.03994 96.2666 14.7199V86.2266C96.2666 93.9099 102.497 100.137 110.18 100.137C117.863 100.137 124.09 93.9099 124.09 86.2266V14.7199C124.09 7.04327 117.863 0.809937 110.18 0.809937Z" fill="#909090"/>
<path fill-rule="evenodd" clip-rule="evenodd" d="M74.5667 1.78326H13.9067C6.22667 1.78326 0 8.01326 0 15.6966C0 23.3766 6.22667 29.6066 13.91 29.6066H74.5667C82.25 29.6066 88.48 23.3766 88.48 15.6966C88.48 8.01326 82.25 1.78326 74.5667 1.78326Z" fill="#909090"/>
<path fill-rule="evenodd" clip-rule="evenodd" d="M292.2 57.0033L262.88 9.27994C259.433 3.73327 254.743 1.0566 248.817 1.0566C242.71 1.0566 237.517 3.91994 234.293 9.27994L200.347 65.5299C198.027 69.3833 195.353 70.9833 190.933 70.9833H165.7C163.553 70.9833 162.143 69.4033 162.143 67.4299V14.2533C162.133 6.58994 155.923 0.809937 148.26 0.809937C140.593 0.809937 134.38 6.59327 134.38 14.2566V79.4433C134.38 89.2499 144.067 98.7466 153.683 98.7466H204.483C211.69 98.7466 216.527 93.4866 220.643 86.2966L247.057 40.9599C247.29 40.4599 247.723 39.8199 248.227 39.8199C248.763 39.8199 249.097 40.4633 249.367 40.9266L266.667 68.6666C267.383 69.8433 267.52 70.4399 267.06 71.4866C266.65 72.4433 265.713 72.6466 264.187 72.6466H239.903C232.693 72.6466 226.85 78.4866 226.85 85.6966C226.85 92.9033 232.693 98.7466 239.903 98.7466H279.52C289.14 98.7466 300 89.5699 300 77.5866C300 69.9899 298.537 67.3133 292.2 57.0033ZM67.8867 37.3966H13.91C6.22667 37.3966 0 43.6266 0 51.3099V85.2533C0 92.9366 6.22667 99.1633 13.91 99.1633C21.5933 99.1633 27.8233 92.9366 27.8233 85.2533V69.3933C27.8233 67.0899 29.69 65.2199 31.9967 65.2199H67.8867C75.57 65.2199 81.8 58.9899 81.8 51.3099C81.8 43.6266 75.57 37.3966 67.8867 37.3966Z" fill="#909090"/>
</g>
<defs>
<clipPath id="clip0_3_951">
<rect width="300" height="100" fill="white" transform="translate(0 0.809937)"/>
</clipPath>
</defs>
</svg>
