<svg width="300" height="68" viewBox="0 0 300 68" fill="none" xmlns="http://www.w3.org/2000/svg">
<path d="M220.39 33.2273C229.463 33.2273 236.098 26.9157 236.585 17.7882C237.073 9.63164 231.22 3.90265 222.537 3.90265C213.073 3.90265 206.244 10.1171 205.756 18.9534C205.268 27.4983 211.122 33.2273 220.39 33.2273ZM214.244 18.6621C214.439 14.6809 217.561 11.865 221.756 11.865C225.756 11.865 228.293 14.4867 228 18.565C227.805 22.5461 224.78 25.3621 220.683 25.3621C216.488 25.265 214.049 22.6432 214.244 18.6621Z" fill="#909090"/>
<path d="M235.707 31.0911C235.61 32.7418 237.171 32.7418 237.854 32.7418H241.659C243.415 32.7418 243.805 32.3534 244.098 30.7027L246.049 19.7302C246.244 18.6621 246.342 17.8853 246.439 16.9143C247.025 18.2737 247.512 19.3418 248.098 20.4099L254.147 31.3824L254.244 31.4795C254.732 32.4505 255.025 32.6447 256.195 32.6447H261.366C263.122 32.6447 263.512 32.2563 263.805 30.6056L268 6.81571L268.098 6.42731C268.195 6.136 268.195 6.136 268.195 5.9418C268.293 4.29108 266.732 4.29108 266.049 4.29108H262.244C260.488 4.29108 260.098 4.67948 259.805 6.33021L257.659 18.4679C257.561 19.0505 257.464 19.6331 257.366 20.3128L257.171 19.7302C256.781 18.9534 256.39 18.2737 256.098 17.594L249.561 5.5534C248.976 4.58238 248.781 4.38818 247.61 4.38818H242.537C240.781 4.38818 240.39 4.77658 240.098 6.42731L235.903 30.2172C235.707 30.8969 235.707 30.8969 235.707 31.0911Z" fill="#909090"/>
<path d="M266.146 31.0911C266.049 32.7418 267.61 32.7418 268.293 32.7418H280.293C282.049 32.7418 282.439 32.3534 282.732 30.7027L283.22 27.6925C283.22 27.5954 283.22 27.4983 283.22 27.4012C283.22 27.207 283.22 27.1099 283.22 27.0128C283.317 25.3621 281.756 25.3621 281.073 25.3621H275.317L275.805 22.4491H281.366C283.122 22.4491 283.512 22.0607 283.805 20.4099L284.293 17.4969C284.39 17.1085 284.39 16.8172 284.39 16.7201C284.488 15.0693 282.927 15.0693 282.244 15.0693H277.073L277.659 11.9621H283.512C285.171 11.9621 285.659 11.5737 285.951 9.92297L286.537 6.62152C286.634 6.33022 286.634 6.33022 286.634 6.13601C286.732 4.48529 285.171 4.48529 284.488 4.48529H272.781C271.025 4.48529 270.634 4.8737 270.342 6.52442L266.146 30.3143C266.146 30.7998 266.146 30.8969 266.146 31.0911Z" fill="#909090"/>
<path d="M228.098 34.8781C218.634 34.8781 211.805 41.0925 211.317 49.9288C210.829 58.4737 216.781 64.2027 225.951 64.2027C235.025 64.2027 241.659 57.8911 242.146 48.7636C242.537 40.607 236.781 34.8781 228.098 34.8781ZM233.561 49.4433C233.366 53.4244 230.342 56.2404 226.244 56.2404C222.146 56.2404 219.61 53.6186 219.805 49.6375C220 45.6563 223.122 42.8404 227.317 42.8404C231.317 42.8404 233.756 45.4621 233.561 49.4433Z" fill="#909090"/>
<path d="M273.659 37.4998C273.756 37.2085 273.756 37.2085 273.756 37.0143C273.854 35.3635 272.293 35.3635 271.61 35.3635H267.805C266.049 35.3635 265.659 35.7519 265.366 37.4027L263.22 49.5403C263.122 50.1229 263.024 50.7056 262.927 51.3853L262.732 50.8027C262.342 50.0258 261.951 49.3461 261.659 48.6664L255.122 36.6258C254.537 35.6548 254.342 35.4606 253.171 35.4606H248.098C246.342 35.4606 245.951 35.849 245.659 37.4998L241.464 61.2896C241.366 61.9693 241.366 61.9693 241.366 62.1635C241.268 63.8143 242.829 63.8143 243.512 63.8143H247.317C249.073 63.8143 249.464 63.4258 249.756 61.7751L251.707 50.8027C251.903 49.7345 252 48.9577 252.098 47.9867C252.683 49.3461 253.171 50.4143 253.756 51.4824L259.805 62.4548L259.903 62.5519C260.39 63.5229 260.683 63.7172 261.854 63.7172H267.024C268.781 63.7172 269.171 63.3287 269.464 61.678L273.659 37.8882V37.4998Z" fill="#909090"/>
<path d="M287.22 53.3273C288.976 53.3273 289.366 52.9389 289.659 51.2882L290.146 48.3751C290.244 47.9867 290.244 47.7925 290.244 47.5983C290.342 45.9476 288.781 45.9476 288.098 45.9476H282.927L283.512 42.8403H289.366C291.025 42.8403 291.512 42.4519 291.805 40.8012L292.39 37.4998C292.488 37.2085 292.488 37.2085 292.488 37.0143C292.585 35.3635 291.025 35.3635 290.342 35.3635H278.634C276.878 35.3635 276.488 35.7519 276.195 37.4027L272 61.1925C271.903 61.7751 271.903 61.8722 271.903 62.0664C271.805 63.7171 273.366 63.7172 274.049 63.7172H285.854C287.61 63.7172 288 63.3287 288.293 61.678L288.781 58.6679C288.781 58.5708 288.781 58.4737 288.781 58.3766C288.781 58.1824 288.781 58.0853 288.781 57.9882C288.878 56.3374 287.317 56.3374 286.634 56.3374H280.878L281.366 53.4244H287.22V53.3273Z" fill="#909090"/>
<path d="M130.146 29.4404C130.049 29.4404 130.049 29.4404 129.951 29.4404C129.854 29.4404 129.756 29.5375 129.463 29.6346C128.683 30.023 127.024 30.7998 125.951 31.2853C123.805 32.1592 120.878 32.5476 119.805 32.6447C119.61 32.6447 119.512 32.6447 119.415 32.6447C118.927 32.7418 117.268 32.8389 116.585 32.936C114.829 33.0331 112.878 33.0331 111.122 32.936C109.171 32.8389 107.415 32.7418 105.951 32.8389H105.756C103.61 32.936 100 33.7128 99.122 33.907C97.6586 34.2954 93.7562 34.6838 92.5854 34.7809C92.1952 34.7809 91.5123 34.878 90.6342 34.6838C89.7562 34.4896 89.0733 34.1983 88.7806 34.0041C87.7074 33.4215 84.2928 31.5766 83.122 30.6056C82.4391 30.023 79.3172 27.8867 77.4635 27.0128H77.0732C75.7074 26.3331 74.0489 25.7505 72.2928 25.0708C70.6342 24.3911 68.7806 23.6143 67.2196 22.8375C66.6342 22.5462 65.1708 21.7693 64.7806 21.478C64.683 21.478 64.5854 21.3809 64.4879 21.2838C63.5123 20.7012 61.0733 19.2447 59.4147 17.594C58.5367 16.7201 57.3659 15.3607 56.8781 14.6809C56.683 14.4867 56.5854 14.2925 56.4879 14.2925C56.4879 14.2925 56.3903 14.1954 56.2928 14.1954C56.0976 14.1954 55.9025 14.2925 55.805 14.2925C55.6098 14.3896 55.4147 14.6809 55.5123 14.8751C55.6098 15.0693 57.2684 17.4969 58.4391 18.565C59.6098 19.7302 61.3659 20.9925 62.5367 21.7693C63.122 22.1578 65.8537 23.8085 65.8537 23.8085C66.5367 24.294 67.3172 24.6824 68.2928 25.265C69.4635 25.9447 70.9269 26.9157 72.8781 28.0809L73.4635 28.4693C77.4635 31.0911 78.3415 31.5766 81.1708 34.3925C82.5367 35.752 83.3172 36.6259 83.805 37.2085L83.9025 37.4027C84.0976 37.5969 84.3903 37.9853 84.683 38.4708C85.3659 39.3447 86.4391 40.8012 87.4147 41.9665C87.805 42.452 88.0976 42.6462 88.8781 42.8404C89.6586 43.0346 89.9513 42.9375 90.5367 42.6462C91.9025 41.9664 93.4635 41.0925 94.4391 40.5099C94.9269 40.2186 95.3172 39.9273 95.6098 39.8302L95.805 39.7331C96.4879 39.4418 97.5611 38.8592 99.3172 38.1795C103.024 36.8201 104 36.6259 108.683 35.8491L109.366 35.752C111.61 35.3636 113.268 35.1693 114.634 34.9751C115.707 34.7809 116.585 34.6838 117.463 34.5867C117.463 34.5867 120.585 34.1012 121.366 34.0041C122.732 33.8099 124.878 33.2273 126.439 32.6447C128 32.0621 130.439 30.5085 130.634 30.3143C130.829 30.2172 130.732 29.8288 130.634 29.6346C130.537 29.6346 130.342 29.4404 130.146 29.4404Z" fill="#909090"/>
<path d="M201.073 8.36934C200.488 5.06789 199.805 4.48528 196.39 4.48528H185.463C182.829 4.48528 182.049 4.67948 180.976 6.62151L180.878 6.91282C180.781 7.00992 180.683 7.30122 180.585 7.49543L158.146 47.5012L149.951 34.6838L168.781 10.894C169.951 9.43745 170.342 8.85485 170.439 7.78673C170.537 6.91282 170.244 6.136 169.659 5.5534C168.683 4.58238 167.22 4.48528 165.756 4.48528H155.707C153.854 4.48528 153.366 4.97079 152.195 6.33021L137.366 25.0708L140.195 9.53456V9.34035C140.195 9.04905 140.293 8.75774 140.293 8.46644C140.293 8.17514 140.39 7.98093 140.39 7.78673C140.39 7.39832 140.488 6.23311 139.707 5.4563C138.927 4.58238 137.561 4.38818 135.902 4.38818H127.805C124.293 4.38818 123.512 5.06789 122.927 8.46644L120.781 20.4099C119.61 17.2056 117.854 14.2925 115.512 11.865C110.244 6.33021 102.244 3.22296 93.0732 3.22296C80.683 3.22296 70.4391 8.27224 64.1952 16.5259L65.4635 9.43745L65.6586 8.66064C65.7561 8.17514 65.7561 8.07803 65.7561 7.68963C65.7561 7.30122 65.8537 6.136 65.0732 5.35919C64.2927 4.48528 62.9269 4.29108 61.2683 4.29108H53.2683C49.7561 4.29108 48.9757 4.97079 48.3903 8.36934L45.3659 24.8766H27.4147L30.244 9.53456V9.34035C30.244 9.04905 30.3415 8.75774 30.3415 8.46644C30.3415 8.17514 30.4391 7.98093 30.4391 7.78673C30.4391 7.39832 30.5366 6.23311 29.7561 5.4563C28.9757 4.58238 27.6098 4.38818 25.9513 4.38818H18.0488C14.5366 4.38818 13.7561 5.06789 13.1708 8.46644L4.09761 58.5708C3.90249 59.736 3.80493 59.8331 3.80493 60.3186C3.80493 60.707 3.70737 61.8722 4.48785 62.649C5.26834 63.523 6.6342 63.7172 8.29273 63.7172H16.2927C19.8049 63.7172 20.5854 63.0375 21.1708 59.6389L24.683 40.3157H42.6342L39.3171 58.5708L39.2196 59.1534C39.0244 59.8331 39.0244 59.9302 39.0244 60.3186C39.0244 60.707 38.9269 61.8722 39.7074 62.649C40.4879 63.523 41.8537 63.7172 43.5122 63.7172H51.5122C55.0244 63.7172 55.8049 63.0375 56.3903 59.6389L58.9269 45.5592C60.0976 49.4432 62.0488 52.8418 64.8781 55.7548C70.3415 61.5809 78.7318 64.7853 88.4878 64.7853C99.5122 64.7853 108.878 60.2215 114.927 52.7447L113.854 58.5708C113.659 59.736 113.561 59.8331 113.561 60.3186C113.561 60.707 113.463 61.8722 114.244 62.649C115.024 63.523 116.39 63.7172 118.049 63.7172H126.049C129.561 63.7172 130.342 63.0375 130.927 59.6389L134.244 41.4809C134.927 42.7433 135.61 43.9085 136.195 44.9766L146.146 61.0954L146.439 61.4838C147.61 63.3288 148.098 63.6201 150.342 63.6201H155.805H160.976H164.878C167.61 63.6201 168.39 63.4259 169.463 61.2896L169.659 60.9983C169.756 60.9012 169.854 60.707 169.951 60.5128L173.659 53.2302H191.22L192.39 59.736C193.073 62.9404 193.756 63.523 197.073 63.523H205.756C207.22 63.523 210.244 63.523 210.439 60.4157C210.439 59.8331 210.439 59.736 210.146 58.2795L201.073 8.36934ZM131.805 32.1592C131.805 32.1592 129.073 34.0041 127.22 34.6838C125.463 35.3635 123.22 35.849 121.756 36.1404C121.268 36.2375 119.805 36.4317 118.829 36.6259C118.342 36.723 118.049 36.723 117.951 36.723C117.171 36.8201 116.293 37.0143 115.122 37.1114H115.024C113.659 37.3056 112.098 37.4998 109.951 37.8882L109.268 37.9853H109.171C106.537 38.4708 105.073 38.665 103.707 39.0534C101.366 44.6853 95.9025 48.278 89.0732 48.278C84.7805 48.278 81.2683 46.9186 78.8293 44.394C76.4879 41.8693 75.3171 38.3737 75.5122 34.2954C75.5122 33.7128 75.6098 33.1302 75.7074 32.6447C74.7318 32.0621 73.6586 31.3824 72.1952 30.4114L71.6098 30.023C69.8537 28.8577 68.4878 28.0809 67.3171 27.4012L67.122 27.3041C66.1464 26.7215 65.3659 26.236 64.683 25.7505L64.3903 25.5563C63.122 24.7795 61.7561 24.0027 61.3659 23.7114C60.683 23.323 58.4391 21.7693 56.9757 20.3128C55.5122 18.9534 53.7561 16.2346 53.7561 16.1375C53.0732 15.0693 53.3659 13.6128 54.5366 12.7389C55.0244 12.3505 55.7074 12.1563 56.2927 12.1563C56.4879 12.1563 56.5854 12.1563 56.7805 12.1563C57.2683 12.2534 57.7561 12.5447 58.1464 12.9331L58.2439 13.0302C58.3415 13.1273 58.4391 13.2244 58.5366 13.4186C58.9269 13.9041 60.1952 15.3606 60.9757 16.1375C61.6586 16.8172 63.0244 17.9824 65.6586 19.536L65.7561 19.6331C65.8537 19.7302 65.9513 19.7302 66.0488 19.8273C66.3415 20.0215 67.6098 20.7012 68.2927 21.0896C69.7561 21.7693 71.5122 22.5462 73.1708 23.2259H73.2683C75.122 23.9056 76.7805 24.5853 78.1464 25.265L78.3415 25.3621C78.5366 25.4592 78.7318 25.5563 78.8293 25.6534C81.7561 22.0606 86.2439 19.8273 91.5122 19.8273C95.7074 19.8273 99.122 21.0896 101.463 23.6143C103.317 25.5563 104.39 28.0809 104.683 31.0911C104.976 31.0911 105.366 30.994 105.659 30.994H105.854C106.244 30.994 106.732 30.994 107.22 30.994C108.488 30.994 109.951 31.0911 111.22 31.0911C112 31.0911 112.781 31.1882 113.659 31.1882C114.634 31.1882 115.61 31.1882 116.585 31.0911C117.268 31.0911 118.829 30.8969 119.122 30.8969H119.22C119.317 30.8969 119.415 30.8969 119.61 30.7998C120.585 30.7027 123.22 30.3143 125.171 29.5375C126.244 29.0519 128 28.178 128.488 27.9838C128.781 27.8867 128.878 27.7896 128.976 27.6925L129.171 27.5954C129.463 27.4983 129.756 27.4012 130.049 27.4012C130.244 27.4012 130.342 27.4012 130.537 27.4983C131.415 27.6925 132.098 28.3722 132.39 28.8577C133.073 30.023 132.781 31.4795 131.805 32.1592ZM180.585 39.7331L186.146 28.9548C186.439 28.3722 186.732 27.7896 187.122 27.1099C187.22 27.9838 187.415 29.149 187.61 30.5085L188.976 39.7331H180.585Z" fill="#909090"/>
<path d="M293.951 56.2404C291.902 56.2404 290.146 57.8911 289.951 59.9302C289.756 61.9693 291.317 63.6201 293.366 63.6201C295.415 63.6201 297.268 61.9693 297.463 59.9302C297.561 57.8911 296.098 56.2404 293.951 56.2404ZM293.463 63.1346C291.707 63.1346 290.439 61.678 290.634 59.9302C290.829 58.1824 292.293 56.7259 294.049 56.7259H294.146C295.805 56.7259 297.171 58.1824 296.976 59.8331C296.683 61.678 295.122 63.1346 293.463 63.1346Z" fill="#909090"/>
<path d="M295.122 59.0563C295.122 58.765 295.122 58.4737 294.927 58.2795C294.732 57.891 294.342 57.7939 293.659 57.7939H292.976C292.781 57.7939 292.683 57.891 292.683 57.9881L291.903 61.7751V61.8722C291.903 61.9693 292 62.0664 292.098 62.0664H292.39C292.586 62.0664 292.683 61.9693 292.683 61.8722L292.976 60.4157H293.073L293.854 61.9693C293.951 62.1635 293.951 62.1635 294.146 62.1635H294.537C294.634 62.1635 294.732 62.0664 294.732 62.0664V61.9693L293.854 60.4157H293.951C294.732 60.1244 295.122 59.6389 295.122 59.0563ZM293.464 59.736H293.268L293.561 58.5708H293.756C294.244 58.5708 294.537 58.765 294.439 59.1534C294.439 59.3476 294.342 59.5418 294.146 59.6389C293.951 59.6389 293.756 59.736 293.464 59.736Z" fill="#909090"/>
</svg>
