<svg width="300" height="149" viewBox="0 0 300 149" fill="none" xmlns="http://www.w3.org/2000/svg">
<path fill-rule="evenodd" clip-rule="evenodd" d="M152.483 54.1167L166.04 30.5438L212.081 27.5972L213.691 24.7176L171.141 21.771L181.141 4.56013H260.067C284.362 4.56013 302.282 13.266 295.302 38.647C293.221 46.4153 283.356 65.8361 254.362 73.9393C260.537 74.676 275.839 81.4398 273.154 98.9855C268.456 130.126 228.121 144.926 205.638 144.926L112.416 144.993L107.785 126.978L156.644 123.563L158.322 120.683L105.302 117.469L99.5973 96.1058L174.966 91.6859L176.644 88.8733L41.2752 80.4352L47.7852 69.1846L193.557 59.742L195.235 56.9294L152.483 54.1167ZM213.49 58.8045L226.913 58.7375C235.906 58.6705 245.235 54.5855 248.658 46.3484C251.812 38.647 247.584 32.0841 241.946 32.1511H228.926L213.49 58.8045ZM197.987 85.5248L181.812 113.585H197.248C204.43 113.585 217.248 110.035 221.208 99.856C224.899 90.3465 218.121 85.5248 213.423 85.5248H197.987ZM80.4027 128.853L71.0067 144.859L4.02686 144.993L10.5369 133.742L80.4027 128.853ZM85.1007 4.49316L138.993 4.56013L143.087 19.7619L78.7248 15.7438L85.1007 4.49316ZM146.107 31.8162L152.013 54.1167L60 48.0895L66.443 36.9058L146.107 31.8162ZM99.2617 96.1058L87.5839 116.33L22.6846 112.647L29.1946 101.396L99.2617 96.1058Z" fill="#909090"/>
</svg>
