<svg width="300" height="109" viewBox="0 0 300 109" fill="none" xmlns="http://www.w3.org/2000/svg">
<path d="M35.595 106.696C26.835 106.348 19.668 103.951 14.064 99.4994C12.9945 98.6489 10.446 96.0989 9.59099 95.0234C7.31849 92.1659 5.77349 89.385 4.74299 86.2995C1.57199 76.8015 3.20399 64.3379 9.41099 50.6594C14.7255 38.9489 22.926 27.3345 37.233 11.2485C39.3405 8.88146 45.6165 1.95892 45.657 1.95892C45.672 1.95892 45.33 2.55143 44.8995 3.27293C41.1795 9.50393 37.9965 16.8434 36.2625 23.1974C33.477 33.3929 33.813 42.1424 37.2465 48.9269C39.615 53.6009 43.6755 57.6495 48.2415 59.8875C56.235 63.804 67.938 64.1279 82.23 60.8354C83.214 60.6074 131.973 47.6639 190.584 32.0714C249.195 16.4774 297.157 3.72894 297.165 3.73944C297.181 3.75294 160.995 62.028 90.2985 92.2605C79.1025 97.047 76.1085 98.256 70.845 100.104C57.39 104.829 45.3375 107.083 35.595 106.696Z" fill="#909090"/>
</svg>
