<svg width="300" height="150" viewBox="0 0 300 150" fill="none" xmlns="http://www.w3.org/2000/svg">
<g clip-path="url(#clip0_3_955)">
<path d="M161.571 1.28835C160.595 1.42812 159.619 4.92249 157.667 6.87934C156.273 8.27709 154.6 8.27709 153.625 9.81461C153.206 10.3737 153.485 11.4919 153.067 12.4703C152.23 14.567 149.582 14.8465 149.582 16.9431C149.582 19.3193 151.952 19.8784 153.903 21.5557C155.437 22.9535 155.716 23.9319 157.388 24.491C158.922 25.0501 161.292 23.3728 163.383 23.9319C165.195 24.491 166.868 24.9103 167.286 26.5876C167.704 28.2649 167.286 30.7808 165.195 30.5013C164.359 30.5013 161.292 29.3831 157.667 29.6626C152.928 30.2217 147.77 31.6195 147.351 36.7912C147.212 39.7264 150.697 42.9413 153.903 42.3822C156.273 41.9628 155.019 39.0276 156.413 37.7696C158.225 36.0923 167.704 43.7799 176.626 43.7799C180.39 43.7799 183.178 42.8015 185.967 39.8662C186.106 39.7264 186.524 39.0276 186.942 39.0276C187.361 39.0276 187.918 39.4469 188.058 39.5867C195.307 45.3174 200.744 56.779 226.952 56.9187C230.716 56.9187 234.898 58.596 238.383 61.8109C241.45 64.7461 243.262 69.0792 244.935 73.5519C247.723 80.2611 252.323 86.8306 259.573 93.9591C259.991 94.3784 265.846 98.991 266.403 99.1307C266.403 99.1307 266.961 100.249 266.822 100.808C266.682 105.281 265.985 117.861 275.604 118.42C277.974 118.559 277.416 116.882 277.416 115.764C277.416 113.667 276.998 111.291 278.253 109.195C279.786 106.119 274.907 104.722 274.907 98.0126C275.046 92.9807 270.864 93.8193 268.634 90.0454C267.519 87.9488 266.264 86.551 266.264 83.8953C266.682 68.6598 262.918 58.596 261.245 56.2199C259.851 54.263 258.457 53.7039 259.851 52.7255C267.797 47.5538 269.61 42.6617 269.61 42.6617C273.931 32.8775 277.556 23.7921 282.853 19.8784C283.829 19.0398 286.617 16.9431 288.29 16.2443C293.169 13.8681 295.678 12.6101 297.073 11.2124C299.164 9.11574 301.115 4.50317 299.024 1.70767C296.236 -1.7867 291.775 0.869023 289.684 2.26677C275.046 10.9328 272.955 26.0285 267.937 34.6945C263.894 41.6833 257.481 46.8549 251.626 47.2743C247.165 47.6936 242.426 46.7152 237.825 44.6186C226.394 39.5867 220.121 33.2968 218.587 32.0388C215.52 29.6626 191.682 6.32024 172.305 5.34182C172.305 5.34182 169.935 0.449698 169.377 0.449698C167.983 0.309923 166.45 3.38497 165.474 3.80429C164.219 4.78272 162.546 1.0088 161.571 1.28835ZM76.5335 140.225C74.7212 140.225 73.3271 138.687 73.1877 136.87V76.7668H53.1134V143.02C53.1134 146.375 55.9015 149.03 58.9684 149.03H93.6803C97.026 149.03 99.5353 146.375 99.5353 143.02V76.9065H79.8792V137.01C79.7398 138.827 78.3457 140.225 76.5335 140.225ZM143.169 76.9065H112.918C109.433 76.9065 106.506 79.8418 106.506 83.3362V149.03H126.301V88.9272C126.301 86.9703 127.835 85.5726 129.647 85.5726C131.599 85.5726 132.993 86.9703 132.993 88.9272V149.17H152.788V88.6476C152.788 86.9703 154.322 85.293 156.134 85.293C157.946 85.293 159.48 86.8306 159.48 88.6476V148.891H179.275V83.1964C179.275 79.5623 176.348 76.7668 172.862 76.7668H143.169V76.9065ZM39.8699 130.86H19.7955V149.03H0V76.9065H40.1487C43.6338 76.9065 46.5613 79.8418 46.5613 83.476V124.43C46.5613 128.064 43.6338 130.86 39.8699 130.86ZM26.6264 88.9272C26.6264 86.9703 25.0929 85.4328 23.2807 85.4328H19.9349V121.914H23.2807C25.0929 121.914 26.6264 120.516 26.6264 118.42V88.9272ZM211.199 149.31V131.279H204.368V149.31H184.433V83.8953C184.433 80.2611 187.361 77.6054 190.846 77.6054H224.442C227.928 77.6054 230.855 80.5407 230.855 83.8953V149.31H211.199ZM211.199 122.473V89.4863C211.199 87.809 209.665 86.2715 207.853 86.2715C206.041 86.2715 204.507 87.809 204.507 89.4863V122.613L211.199 122.473Z" fill="#909090"/>
<path d="M248.978 148.471C243.541 148.471 239.219 144.138 239.219 138.687C239.219 133.236 243.541 128.903 248.978 128.903C254.415 128.903 258.736 133.236 258.736 138.687C258.736 144.138 254.415 148.471 248.978 148.471ZM248.978 130.44C244.377 130.44 240.753 134.214 240.753 138.687C240.753 143.16 244.517 146.934 248.978 146.934C253.439 146.934 257.203 143.16 257.203 138.687C257.203 134.214 253.578 130.44 248.978 130.44Z" fill="#909090"/>
<path d="M246.05 134.634H249.256C249.954 134.634 250.511 134.773 250.929 135.193C251.487 135.612 251.766 136.171 251.766 137.01C251.766 138.128 251.208 138.967 250.232 139.386L252.184 143.16H250.651L248.978 139.526H247.444V143.16H246.19V134.634H246.05ZM247.305 138.407H249.256C249.675 138.407 250.093 138.268 250.372 137.988C250.651 137.709 250.79 137.429 250.79 137.01C250.79 136.59 250.651 136.171 250.372 136.031C250.093 135.892 249.814 135.752 249.396 135.752H247.444V138.407H247.305Z" fill="#909090"/>
</g>
<defs>
<clipPath id="clip0_3_955">
<rect width="300" height="149" fill="white" transform="translate(0 0.309937)"/>
</clipPath>
</defs>
</svg>
