<svg width="300" height="85" viewBox="0 0 300 85" fill="none" xmlns="http://www.w3.org/2000/svg">
<g clip-path="url(#clip0_3_952)">
<path d="M187.392 36.3183C221.8 22.5433 243.225 14.6516 300 0.809937C269.167 2.84327 200.975 7.5266 153.975 16.7016L187.392 36.3183Z" fill="#909090"/>
<path d="M80.3917 81.9599H125.392C134.3 68.4683 143.167 61.8849 153.492 54.5683C145.675 51.5516 137.825 48.6349 129.842 45.8099C101.125 58.4849 85.1501 75.5016 80.4251 81.9599" fill="#909090"/>
<path d="M89.2834 32.8599C49.1667 47.2016 26.8584 62.7683 11.8 81.9599H61.4834C66.3251 75.2266 84.7584 55.7933 119.4 42.2849C109.85 39.0516 93.25 33.8683 89.2834 32.8599Z" fill="#909090"/>
<path d="M109.875 2.65991H0C110.775 22.6599 164.167 48.4182 250 84.8099C242.658 79.3266 124.358 9.64325 109.892 2.65991" fill="#909090"/>
</g>
<defs>
<clipPath id="clip0_3_952">
<rect width="300" height="84" fill="white" transform="translate(0 0.809937)"/>
</clipPath>
</defs>
</svg>
