<svg width="300" height="172" viewBox="0 0 300 172" fill="none" xmlns="http://www.w3.org/2000/svg">
<g clip-path="url(#clip0_3_950)">
<path d="M192.711 85.7247C191.686 86.5778 190.319 87.4309 188.781 88.4547C178.872 95.4503 164.351 100.398 145.558 100.398H144.362C125.569 100.398 111.048 95.6209 101.139 88.4547C99.6014 87.4309 98.2346 86.4072 97.2096 85.7247C98.2346 84.8715 99.6014 84.0184 101.139 82.824C111.048 75.8284 125.569 70.8803 144.362 70.8803H145.558C164.351 70.8803 178.872 75.6578 188.781 82.824C190.319 84.0184 191.515 85.0422 192.711 85.7247ZM289.749 27.7121C289.749 27.7121 281.207 21.2283 254.214 11.3321C230.467 2.45958 212.528 0.582703 212.528 0.582703V51.7703C212.528 58.9365 210.649 65.5909 205.011 73.0984C184.852 65.7615 165.718 61.1546 144.875 61.1546C124.032 61.1546 104.897 65.5909 84.738 73.0984C79.2711 65.5909 77.221 58.9365 77.221 51.7703V0.582703C77.221 0.582703 59.1116 2.45958 35.3645 11.1615C8.54214 21.2283 0 27.7121 0 27.7121C1.1959 50.9171 21.5262 71.5628 53.4738 85.8953C21.5262 100.057 1.02506 120.703 0 143.908C0 143.908 8.54214 150.392 35.5353 160.288C59.2825 168.99 77.221 170.867 77.221 170.867L77.0501 119.679C77.0501 112.513 79.1002 105.858 84.5672 98.3509C104.727 105.688 123.861 110.124 144.704 110.124C165.547 110.124 184.681 105.688 204.841 98.3509C210.308 105.858 212.358 112.342 212.358 119.679V170.867C212.358 170.867 230.296 168.99 254.043 160.288C281.036 150.392 289.579 143.908 289.579 143.908C288.383 120.703 268.052 100.057 236.105 85.7247C268.223 71.5628 288.554 50.9171 289.749 27.7121ZM299.317 137.765C299.317 138.96 298.633 140.154 297.437 140.495C296.241 141.007 295.046 140.666 294.191 139.813C293.337 138.96 292.995 137.595 293.508 136.571C294.02 135.377 295.046 134.694 296.241 134.694C297.096 134.694 297.779 135.035 298.292 135.547C298.975 136.23 299.317 136.912 299.317 137.765ZM300 137.765C300 136.23 299.146 135.035 297.779 134.353C296.412 133.841 294.875 134.012 293.85 135.206C292.825 136.23 292.483 137.765 292.995 139.13C293.508 140.495 294.875 141.348 296.412 141.348C298.292 141.348 300 139.813 300 137.765Z" fill="#909090"/>
<path d="M297.096 139.472H297.779L296.754 137.936C296.925 137.936 297.267 137.765 297.437 137.595C297.608 137.424 297.608 137.083 297.608 136.912C297.608 136.4 297.267 135.888 296.412 135.888H295.216V139.301H295.729V137.765H296.071L297.096 139.472ZM295.558 136.4H296.071C296.583 136.4 296.754 136.571 296.754 136.912C296.754 137.253 296.583 137.424 296.071 137.424H295.558C295.558 137.595 295.558 136.4 295.558 136.4Z" fill="#909090"/>
</g>
<defs>
<clipPath id="clip0_3_950">
<rect width="300" height="170.455" fill="white" transform="translate(0 0.582703)"/>
</clipPath>
</defs>
</svg>
