<svg width="98" height="137" viewBox="0 0 98 137" fill="none" xmlns="http://www.w3.org/2000/svg">
<g filter="url(#filter0_f_40_1000)">
<path d="M44.2674 35.1596C44.7057 30.2342 53.4717 31.3464 62.3837 32.1408C63.8934 34.7888 66.9127 40.5934 66.9127 42.6271C66.9127 45.1693 64.1369 56.45 64.1369 58.6744C64.1369 60.8988 66.9127 80.2827 66.9127 86.3203C66.9127 92.3579 66.4744 97.4422 64.1369 99.3488C61.7993 101.255 58.2929 97.1244 47.0433 89.6568C40.1767 86.638 47.0433 85.5258 47.0433 82.9837V71.3852C47.0433 67.7308 46.3128 60.581 44.2674 47.3936C42.2221 34.2063 43.8292 40.085 44.2674 35.1596Z" fill="#111111"/>
</g>
<mask id="mask0_40_1000" style="mask-type:alpha" maskUnits="userSpaceOnUse" x="0" y="28" width="82" height="109">
<path d="M58.5077 93.7781V28H81.0069V93.6192C81.0069 107.601 77.4031 118.299 70.1956 125.714C62.988 133.022 53.2481 136.677 40.9759 136.677C28.8984 136.677 19.2072 133.022 11.9022 125.714C4.59729 118.405 0.944824 108.078 0.944824 94.7314V28H23.444V94.5725C23.444 107.813 29.288 114.433 40.9759 114.433C52.6637 114.433 58.5077 107.548 58.5077 93.7781Z" fill="white"/>
</mask>
<g mask="url(#mask0_40_1000)">
<path d="M16.0337 100.598L8.87033 95.7915L8.71791 94.6313H6.43174L1.09734 90.6533V89.6588H0.792513L-3.79879 88.3858L-18.1165 133.986L95.6944 141.294L86.3441 16.4113L56.2478 21.3367L29.95 48.347L25.4832 105.736H23.9591L19.5391 102.753H18.9295L18.1674 102.09L17.8626 101.261L17.1005 100.598H16.0337Z" fill="white"/>
</g>
<defs>
<filter id="filter0_f_40_1000" x="12.7706" y="0.959036" width="84.6245" height="129.335" filterUnits="userSpaceOnUse" color-interpolation-filters="sRGB">
<feFlood flood-opacity="0" result="BackgroundImageFix"/>
<feBlend mode="normal" in="SourceGraphic" in2="BackgroundImageFix" result="shape"/>
<feGaussianBlur stdDeviation="15.2412" result="effect1_foregroundBlur_40_1000"/>
</filter>
</defs>
</svg>
