<svg width="213" height="96" viewBox="0 0 213 96" fill="none" xmlns="http://www.w3.org/2000/svg">
<path fill-rule="evenodd" clip-rule="evenodd" d="M37.6201 0.740844L40.8376 0.171155L42.5449 9.89066C53.2759 8.34264 63.2597 7.56472 73.2394 7.56472C83.2194 7.56472 93.2027 8.34264 103.934 9.89011L105.641 0.170609L108.859 0.740297L107.166 10.3753C108.123 10.5246 109.079 10.6789 110.034 10.838L111.215 4.11726L114.433 4.68658L113.255 11.3902C114.287 11.5729 115.327 11.7615 116.376 11.9574L115.778 15.1813C114.739 14.9871 113.709 14.8005 112.687 14.6196L111.407 21.9106L108.189 21.3413L109.467 14.0667C108.504 13.9064 107.549 13.7524 106.599 13.6039L104.825 23.706L101.607 23.1369L103.367 13.1186C101.827 12.8963 100.305 12.6923 98.7961 12.5028C95.9741 20.9567 92.4944 30.7259 86.6406 37.0025C85.9551 38.7612 85.5265 40.2864 85.0997 41.8051C84.2094 44.9733 83.3271 48.1132 80.1369 53.2856C84.8563 60.2085 87.7606 71.8683 89.3561 82.6171L98.0688 83.7103V86.443H84.8563C81.9521 77.6982 73.2394 60.2085 73.2394 60.2085C73.2394 60.2085 64.5267 77.6982 61.6225 86.443H48.41V83.7103L57.1227 82.6171C58.7182 71.8683 61.6225 60.2085 65.7174 53.2856C62.5076 47.2879 61.6867 44.0876 60.7194 40.317C60.4526 39.2772 60.1747 38.1939 59.8325 36.9967C53.9807 30.7199 50.5034 20.954 47.6827 12.5024C46.1574 12.694 44.6338 12.8993 43.1121 13.1182L44.8723 23.1365L41.6546 23.706L39.8799 13.6039C38.931 13.7524 37.9751 13.9064 37.0124 14.0667L38.2902 21.3413L35.0725 21.9104L33.7917 14.6194C32.7696 14.8005 31.7406 14.9871 30.7009 15.1813L30.1034 11.9574C31.1429 11.7635 32.1834 11.5745 33.2247 11.3904L32.0467 4.68694L35.2642 4.1178L36.4446 10.8386C37.3998 10.6796 38.3558 10.5254 39.3125 10.3758L37.6201 0.740844ZM92.8106 11.8284C86.1396 11.1665 79.6886 10.8331 73.2394 10.8331C66.7898 10.8331 60.3388 11.1665 53.6681 11.8284C56.2242 18.1787 60.6481 25.2196 65.1402 30.4051C67.0145 33.1124 69.9086 34.885 73.2394 34.885C76.5702 34.885 79.4641 33.1124 81.3384 30.4051C85.8307 25.2196 90.2546 18.1789 92.8106 11.8284ZM66.1603 23.0431C66.1603 18.1678 69.4575 14.4804 73.2394 14.4804C77.0212 14.4804 80.3185 18.1678 80.3185 23.0431C80.3185 27.9183 77.0212 31.6057 73.2394 31.6057C69.4575 31.6057 66.1603 27.9183 66.1603 23.0431ZM0 86.443H8.5889L11.0666 66.2003L22.8219 85.8295H22.9446L40.2552 64.915L37.6071 86.443H46.5027L52.2696 39.4494H52.1469L24.7635 71.942L5.82818 39.4494H5.76683L0 86.443ZM141.075 88.2834H141.32L147.087 41.2899H138.13L134.987 68.5115L107.026 39.5108H106.658L100.891 86.443H109.909L112.994 59.7497L141.075 88.2834ZM167.488 76.9338C167.038 80.8602 165.852 84.2139 163.93 86.9951C162.048 89.7763 159.635 91.9031 156.69 93.3754C153.746 94.8887 150.453 95.7067 146.813 95.8294L147.856 87.1792C149.737 87.0565 151.414 86.6475 152.887 85.9522C154.4 85.2569 155.647 84.173 156.629 82.7007C157.651 81.1874 158.306 79.2038 158.592 76.7498L162.887 41.2899H171.844L167.488 76.9338ZM171.707 86.443H180.479L185.244 77.6087H200.229L202.627 86.443H212.933L198.332 39.5108H197.841L171.707 86.443ZM198.198 70.1241L195.213 59.1252L189.281 70.1241H198.198Z" fill="black"/>
</svg>
